<?xml version="1.0" encoding="utf-8"?>
<!-- Generator: Adobe Illustrator 19.1.0, SVG Export Plug-In . SVG Version: 6.00 Build 0)  -->
<svg version="1.1" id="Ebene_1" xmlns="http://www.w3.org/2000/svg" xmlns:xlink="http://www.w3.org/1999/xlink" x="0px" y="0px"
	 viewBox="-257 379 79.4 85" style="enable-background:new -257 379 79.4 85;" xml:space="preserve">
<style type="text/css">
	.st0{fill:#4773A1;}
	.st1{fill:#FFFFFF;}
	.st2{fill:none;stroke:#FFFFFF;stroke-width:2;stroke-miterlimit:10;}
	.st3{fill:none;stroke:#FFFFFF;stroke-miterlimit:10;}
	.st4{fill:#FFFFFF;stroke:#FFFFFF;stroke-miterlimit:10;}
</style>
<path class="st0" d="M-217.6,385.4v38.5h38.5C-179.1,402.6-196.4,385.4-217.6,385.4z"/>
<ellipse class="st1" cx="-217.6" cy="382.6" rx="5" ry="3.1"/>
<circle class="st1" cx="-217.6" cy="423.8" r="2.1"/>
<circle class="st2" cx="-217.6" cy="423.8" r="38.5"/>
<line class="st3" x1="-236.8" y1="390.5" x2="-232.8" y2="397.6"/>
<line class="st4" x1="-250.9" y1="404.6" x2="-243.9" y2="408.7"/>
<line class="st4" x1="-256.1" y1="423.8" x2="-247.9" y2="423.8"/>
<line class="st4" x1="-250.9" y1="443.1" x2="-243.9" y2="439"/>
<line class="st4" x1="-236.8" y1="457.1" x2="-232.8" y2="450.1"/>
<line class="st4" x1="-217.6" y1="462.3" x2="-217.6" y2="454.2"/>
<line class="st4" x1="-198.4" y1="457.1" x2="-202.4" y2="450.1"/>
<line class="st4" x1="-184.3" y1="443.1" x2="-191.3" y2="439"/>
<line class="st3" x1="-179.1" y1="423.8" x2="-187.3" y2="423.8"/>
<line class="st4" x1="-184.3" y1="404.6" x2="-191.3" y2="408.7"/>
<line class="st4" x1="-198.4" y1="390.5" x2="-202.4" y2="397.6"/>
<line class="st3" x1="-250.9" y1="404.6" x2="-243.9" y2="408.7"/>
<line class="st3" x1="-256.1" y1="423.8" x2="-247.9" y2="423.8"/>
<line class="st3" x1="-250.9" y1="443.1" x2="-243.9" y2="439"/>
<line class="st3" x1="-236.8" y1="457.1" x2="-232.8" y2="450.1"/>
<line class="st3" x1="-217.6" y1="462.3" x2="-217.6" y2="454.2"/>
<line class="st3" x1="-198.4" y1="457.1" x2="-202.4" y2="450.1"/>
<line class="st3" x1="-184.3" y1="443.1" x2="-191.3" y2="439"/>
<line class="st3" x1="-184.3" y1="404.6" x2="-191.3" y2="408.7"/>
<line class="st3" x1="-198.4" y1="390.5" x2="-202.4" y2="397.6"/>
<line class="st3" x1="-217.6" y1="385.4" x2="-217.6" y2="393.5"/>
<path class="st4" d="M-179.1,423.8"/>
</svg>
